<svg xmlns="http://www.w3.org/2000/svg" viewBox="0 0 36 36" fill="none"><g transform="translate(-917 -377)"><path d="M942.5 390C942.5 388.011 941.71 386.103 940.303 384.697C938.897 383.29 936.989 382.5 935 382.5C933.011 382.5 931.103 383.29 929.697 384.697C928.29 386.103 927.5 388.011 927.5 390C927.5 398.75 923.75 401.25 923.75 401.25H946.25C946.25 401.25 942.5 398.75 942.5 390Z" stroke="currentColor" stroke-width="2" stroke-linecap="round" stroke-linejoin="round"></path><path d="M937.163 406.25C936.943 406.629 936.627 406.943 936.248 407.162C935.868 407.381 935.438 407.496 935 407.496C934.562 407.496 934.132 407.381 933.752 407.162C933.373 406.943 933.057 406.629 932.838 406.25" stroke="currentColor" stroke-width="2" stroke-linecap="round" stroke-linejoin="round"></path></g></svg>
