<svg xmlns="http://www.w3.org/2000/svg" viewBox="0 0 36 36" fill="none"><g transform="translate(-557 -77)"><path d="M580 106.25V103.75C580 102.424 579.473 101.152 578.536 100.214C577.598 99.2768 576.326 98.75 575 98.75H566.25C564.924 98.75 563.652 99.2768 562.714 100.214C561.777 101.152 561.25 102.424 561.25 103.75V106.25" stroke="currentColor" stroke-width="2" stroke-linecap="round" stroke-linejoin="round"></path><path d="M570.625 93.75C573.386 93.75 575.625 91.5114 575.625 88.75C575.625 85.9886 573.386 83.75 570.625 83.75C567.864 83.75 565.625 85.9886 565.625 88.75C565.625 91.5114 567.864 93.75 570.625 93.75Z" stroke="currentColor" stroke-width="2" stroke-linecap="round" stroke-linejoin="round"></path><path d="M582.5 90L588.75 96.25" stroke="currentColor" stroke-width="2" stroke-linecap="round" stroke-linejoin="round"></path><path d="M588.75 90L582.5 96.25" stroke="currentColor" stroke-width="2" stroke-linecap="round" stroke-linejoin="round"></path></g></svg>
